<?xml version="1.0" standalone="no"?>
<!DOCTYPE svg PUBLIC "-//W3C//DTD SVG 20010904//EN"
 "http://www.w3.org/TR/2001/REC-SVG-20010904/DTD/svg10.dtd">
<svg version="1.0" xmlns="http://www.w3.org/2000/svg"
 width="700.000000pt" height="700.000000pt" viewBox="0 0 700.000000 700.000000"
 preserveAspectRatio="xMidYMid meet">
<metadata>
Created by potrace 1.14, written by Peter Selinger 2001-2017
</metadata>
<g transform="translate(0.000000,700.000000) scale(0.100000,-0.100000)"
fill="#000000" stroke="none">
<path d="M4765 6436 c-144 -33 -256 -96 -366 -206 -178 -176 -290 -425 -334
-743 -35 -256 -86 -1078 -146 -2356 l-22 -474 27 -24 c22 -19 38 -23 91 -23
35 0 74 5 87 11 13 5 42 38 66 72 51 76 164 202 253 284 191 176 429 313 649
374 121 33 297 34 391 1 172 -59 274 -176 315 -359 13 -60 15 -106 11 -222
-11 -297 -93 -556 -256 -815 -363 -579 -979 -1073 -1302 -1043 -162 14 -241
126 -274 390 -8 57 -36 93 -63 78 -20 -10 -105 -150 -135 -221 -28 -66 -18
-102 46 -178 125 -149 280 -222 474 -223 281 -1 590 169 939 518 407 406 663
857 750 1318 25 135 15 404 -19 536 -50 193 -154 343 -284 412 -119 63 -277
81 -449 52 -345 -61 -780 -322 -1030 -618 -41 -48 -74 -84 -74 -80 0 24 51
765 55 798 5 36 14 47 85 103 131 104 347 301 485 443 440 452 712 901 791
1306 24 119 24 344 0 433 -73 278 -299 455 -596 466 -67 2 -126 -1 -165 -10z
m297 -177 c186 -62 290 -243 290 -504 0 -115 -12 -195 -48 -313 -92 -307 -310
-643 -670 -1033 -117 -128 -355 -355 -438 -420 l-28 -22 6 214 c21 661 29 781
77 1183 34 288 54 376 113 501 145 306 450 478 698 394z"/>
<path d="M2952 6299 c-390 -50 -902 -363 -1347 -821 -308 -317 -480 -584 -552
-856 -33 -126 -43 -359 -20 -467 58 -268 216 -438 474 -506 93 -25 292 -30
418 -10 326 51 682 194 965 389 83 57 129 93 276 215 27 23 34 26 34 12 0 -9
-18 -199 -40 -421 -22 -223 -40 -411 -40 -420 0 -9 -35 -31 -92 -58 -552 -256
-917 -495 -1229 -806 -200 -199 -325 -369 -429 -585 -95 -198 -132 -335 -151
-566 -20 -233 13 -467 86 -615 93 -190 289 -272 512 -216 209 53 429 186 610
370 229 231 422 539 546 867 207 550 367 1511 417 2508 13 268 4 307 -74 307
-26 0 -48 -16 -278 -204 -273 -222 -617 -425 -867 -511 -400 -137 -735 -91
-880 119 -56 81 -74 156 -74 301 -1 335 136 610 498 1005 337 367 786 681
1109 774 240 70 434 49 504 -54 20 -29 23 -45 20 -95 -6 -90 -36 -142 -149
-254 -102 -101 -114 -124 -81 -154 31 -28 59 -19 129 41 180 155 263 275 271
390 6 87 -15 138 -83 201 -113 102 -286 146 -483 120z m113 -3171 c-3 -18 -17
-114 -30 -213 -49 -350 -123 -672 -214 -935 -201 -582 -482 -945 -887 -1149
-277 -139 -439 -75 -500 198 -21 94 -14 405 11 520 128 575 575 1047 1425
1506 80 43 154 84 165 91 31 20 36 17 30 -18z"/>
<path d="M3639 3740 c-24 -17 -66 -48 -94 -70 -27 -22 -78 -54 -112 -70 -68
-34 -88 -58 -79 -96 7 -28 46 -50 115 -65 127 -27 314 58 363 166 16 35 1 91
-34 130 -41 47 -94 49 -159 5z"/>
</g>
</svg>
